
<?xml version="1.0" standalone="no"?>
<!DOCTYPE svg PUBLIC "-//W3C//DTD SVG 20010904//EN"
 "http://www.w3.org/TR/2001/REC-SVG-20010904/DTD/svg10.dtd">
<svg version="1.0" xmlns="http://www.w3.org/2000/svg"
 width="107.000000pt" height="107.000000pt" viewBox="0 0 107.000000 107.000000"
 preserveAspectRatio="xMidYMid meet">

<g transform="translate(0.000000,107.000000) scale(0.100000,-0.100000)"
fill="#000000" stroke="none">
<path d="M274 4781 c-17 -10 -41 -33 -53 -49 l-21 -30 0 -1752 c0 -1950 -6
-1787 70 -1835 l40 -25 707 -1 708 0 315 -395 c173 -218 338 -418 367 -445 45
-43 57 -49 95 -49 39 0 47 5 113 73 39 39 205 240 369 444 l298 373 705 0
c786 0 738 -4 793 72 l30 41 0 1742 0 1742 -23 34 c-12 18 -38 44 -56 56 l-34
23 -2196 0 c-2139 0 -2197 -1 -2227 -19z m4246 -1836 l0 -1575 -667 0 c-499
-1 -675 -4 -694 -13 -34 -15 -99 -92 -403 -470 -136 -169 -252 -307 -256 -305
-5 2 -116 136 -246 298 -312 388 -382 470 -411 481 -14 5 -308 9 -694 9 l-669
0 0 1575 0 1575 2020 0 2020 0 0 -1575z"/>
<path d="M2344 4240 c-35 -14 -72 -67 -80 -115 -3 -25 -5 -125 -2 -222 4 -197
11 -223 71 -258 64 -38 168 -10 196 53 7 14 11 111 11 246 0 211 -1 225 -21
250 -39 50 -116 70 -175 46z"/>
<path d="M1889 4041 l-39 -39 0 -247 c0 -211 2 -251 16 -275 24 -39 65 -60
119 -60 55 0 95 19 121 57 17 26 19 49 19 268 0 215 -2 244 -18 268 -28 43
-75 67 -131 67 -43 0 -53 -4 -87 -39z"/>
<path d="M2748 4064 c-58 -31 -63 -55 -62 -314 1 -271 5 -286 78 -322 59 -28
107 -19 158 32 l38 38 0 241 c0 262 -3 278 -56 320 -32 25 -114 28 -156 5z"/>
<path d="M1738 3260 l-267 -5 -31 -30 c-17 -16 -35 -45 -41 -65 -7 -23 -9
-201 -7 -530 l3 -495 28 -80 c68 -191 192 -321 389 -404 l63 -26 514 -3 c457
-3 519 -1 565 14 170 55 321 183 394 334 26 54 48 117 58 172 l17 87 176 3
c166 3 179 4 233 30 79 37 142 98 181 177 l32 66 0 170 0 170 -32 60 c-42 80
-104 141 -183 179 -64 30 -69 31 -236 34 l-171 4 -12 38 c-7 24 -27 52 -53 74
l-42 36 -655 -2 c-361 -1 -776 -5 -923 -8z m1392 -697 l0 -418 -29 -50 c-37
-64 -102 -129 -166 -166 l-50 -29 -473 0 -473 0 -57 27 c-76 36 -154 116 -183
190 -23 57 -24 67 -27 461 l-3 402 730 0 731 0 0 -417z m510 267 c84 0 86 -1
103 -29 13 -22 17 -53 17 -134 0 -90 -3 -108 -21 -131 l-20 -26 -150 0 -149 0
0 166 0 167 68 -6 c37 -4 105 -7 152 -7z"/>
</g>
</svg>
