<?xml version="1.0" standalone="no"?>
<!DOCTYPE svg PUBLIC "-//W3C//DTD SVG 20010904//EN"
 "http://www.w3.org/TR/2001/REC-SVG-20010904/DTD/svg10.dtd">
<svg version="1.0" xmlns="http://www.w3.org/2000/svg"
 width="50.000000pt" height="50.000000pt" viewBox="0 0 200.000000 200.000000"
 preserveAspectRatio="xMidYMid meet">

<g transform="translate(0.000000,200.000000) scale(0.100000,-0.100000)"
fill="#1f335b" stroke="none">
<path d="M499 1899 c-55 -59 -62 -165 -14 -231 62 -85 65 -111 24 -170 -24
-33 -18 -60 16 -78 33 -18 66 4 95 65 33 69 25 139 -23 201 -43 55 -48 102
-17 149 25 38 25 50 0 75 -28 28 -47 25 -81 -11z"/>
<path d="M809 1899 c-55 -59 -62 -165 -14 -231 62 -85 65 -111 24 -168 -25
-33 -18 -66 16 -82 32 -14 66 8 90 58 38 80 30 150 -26 220 -35 44 -38 95 -9
139 25 38 25 50 0 75 -28 28 -47 25 -81 -11z"/>
<path d="M1119 1899 c-64 -68 -63 -173 1 -254 36 -45 39 -93 9 -141 -24 -40
-18 -70 16 -86 32 -14 66 8 89 57 38 78 29 153 -24 220 -36 45 -39 95 -10 140
25 38 25 50 0 75 -28 28 -47 25 -81 -11z"/>
<path d="M151 1293 c-23 -16 -24 -19 -17 -122 14 -237 98 -470 230 -638 l41
-52 450 -1 451 0 35 48 36 48 90 11 c203 26 358 158 408 348 21 84 19 142 -8
189 -34 60 -74 76 -189 76 l-98 0 0 39 c0 75 40 71 -725 71 -617 0 -683 -2
-704 -17z m1624 -217 c14 -21 15 -34 5 -87 -6 -35 -20 -79 -30 -98 -30 -60
-96 -126 -157 -158 -66 -35 -150 -54 -140 -32 49 109 82 208 99 294 l21 105
94 0 c87 0 94 -1 108 -24z"/>
<path d="M222 358 c-32 -32 -4 -78 74 -127 94 -57 128 -61 559 -61 321 0 401
3 450 16 133 34 230 125 183 172 -17 17 -1249 17 -1266 0z"/>
</g>
</svg>
